<svg width="611" height="579" viewBox="0 0 611 579" fill="none" xmlns="http://www.w3.org/2000/svg">
<path d="M305.075 0C394.048 0.558377 471.776 30.1143 537.868 89.2007C567.03 115.267 591.231 145.508 603.503 183.351C614.873 218.402 614.619 253.008 593.591 285.051C580.381 305.204 561.459 318.948 540.381 329.925C506.104 347.755 469.226 357.602 431.637 365.217C423.984 366.765 424.124 366.562 427.322 373.478C441.916 405.115 452.512 437.768 449.099 473.225C445.076 515.128 423.972 545.687 384.961 561.829C333.045 583.301 280.278 583.771 228.184 562.248C184.796 544.329 164.364 509.989 162.715 463.986C161.611 433.263 171.192 404.823 183.375 377.146C188.489 365.534 188.578 365.915 175.925 363.77C135.062 356.866 95.3413 346.27 59.4909 324.62C31.3437 307.64 10.2777 284.785 2.76496 251.663C-3.74521 222.995 1.78773 195.737 13.6406 169.556C34.1101 124.34 67.1179 89.8607 107.575 62.0814C167.118 21.1676 233.045 0.418783 305.075 0ZM261.065 534.012C262.106 540.852 267.626 545.788 273.997 546.715C288.819 548.859 303.616 549.367 318.679 548.352C339.745 546.918 360.076 543.364 379.01 533.834C405.05 520.725 419.365 499.138 421.992 470.395C424.441 443.618 416.192 418.872 405.533 394.684C395.583 372.12 382.436 351.092 373.794 327.958C365.964 306.968 358.629 285.775 364.682 262.767C365.583 259.353 364.136 257.729 360.558 257.348C353.032 256.536 345.596 255.178 338.02 254.544C310.57 252.272 283.286 253.122 256.129 257.615C246.408 259.227 246.243 259.874 249.441 270.102C249.504 270.965 249.568 271.815 249.644 272.678C250.545 296.803 243.172 318.897 232.842 340.191C221.788 362.97 208.451 384.646 199.923 408.656C190.862 434.176 186.04 459.988 193.666 486.841C198.451 503.707 208.045 517.235 221.928 527.806C223.375 528.91 225.33 529.762 227.272 528.937L228.881 507.905C228.881 507.905 229.073 504.786 229.377 503.39C231.42 494.202 234.453 485.433 241.852 479.062C246.776 474.824 252.689 472.844 258.882 475.534C265.177 478.275 267.195 484.011 267.36 490.598C267.474 495.496 265.126 499.57 263.223 503.745C258.717 513.605 258.438 523.682 261.065 534.012ZM403.007 240.965C406.903 244.43 411.395 247.348 412.03 253.326C413.071 263.161 409.187 268.668 397.88 272.78C389.555 275.8 388.73 277.171 390.812 285.762C395.152 303.668 402.017 320.648 409.873 337.272C411.56 340.851 413.794 341.676 417.436 340.813C440.418 335.42 463.604 330.851 486.091 323.478C511.459 315.166 536.155 305.508 556.65 287.59C563.249 281.815 563.261 281.232 557.03 274.76C529.251 245.952 493.693 231.612 456.383 220.508C456.129 220.318 455.863 220.28 455.571 220.394C455 220.115 454.429 219.848 453.87 219.569C412.944 208.186 371.103 203.072 328.768 201.6C290.443 200.28 252.321 202.754 214.504 209.226C170.583 216.752 127.841 228.097 88.4758 249.772C75.0621 257.158 62.9554 266.257 53.0823 278.148C50.1889 281.638 49.5036 284.049 53.6534 287.488C59.694 292.488 65.7727 297.374 72.5113 301.346C111.318 324.201 154.415 333.3 198.133 340.432C200.646 340.838 201.687 339.633 202.613 337.958C211.56 321.79 218.895 305.001 221.674 286.562C223.21 276.422 223.121 276.435 213.476 272.488C206.128 269.48 200.633 264.683 200.481 256.219C200.329 248.338 205.862 244.277 212.271 241.257C213.793 240.534 215.38 239.937 216.979 239.391C239.783 231.714 263.387 228.325 287.283 227.209C310.304 226.13 333.337 226.384 356.243 229.43C368.933 232.272 381.84 234.15 394.302 237.957C397.208 238.973 400.114 239.963 403.007 240.965ZM513.451 212.094C523.248 217.843 533.731 222.323 543.249 228.592C554.733 236.155 565.406 244.671 574.848 254.709C575.977 255.902 577.843 259.125 579.277 255.293C581.865 248.427 584.124 241.409 584.556 233.947C585.952 210.001 578.553 188.249 567.652 167.475C555.749 144.785 539.035 125.825 520.114 108.845C512.665 102.158 505.342 95.0129 495.939 90.8251C491.827 86.5485 486.992 83.1221 482.043 79.9622C460.126 65.952 437.335 53.7184 412.703 45.0128C380.85 33.7564 348.159 27.1448 314.377 26.358C298.134 25.9772 281.941 26.4848 265.761 28.7184C241.827 32.0305 218.616 37.7539 196.23 46.8022C195.405 46.9291 194.517 46.891 193.755 47.1829C141.979 67.2971 96.6104 96.5612 62.2194 140.939C43.5645 165 30.1127 191.574 26.7752 222.424C25.5696 233.567 27.232 244.353 30.8741 254.848C31.5467 256.777 32.1559 260.927 35.76 257.45C42.5874 250.876 49.1991 244.087 55.8996 237.374C57.689 237.361 59.0214 236.359 60.4681 235.432C70.0494 229.252 79.8337 223.376 90.2271 218.693C121.09 204.772 153.184 194.683 186.268 187.564C221.002 180.089 256.167 176.371 291.585 175.191C325.811 174.036 359.847 176.752 393.819 181.028C421.522 184.518 448.591 190.445 475.292 198.592C488.248 202.564 500.558 208.122 513.451 212.094Z" fill="#4A342A"/>
<path d="M196.243 46.8274C218.628 37.7665 241.839 32.0431 265.773 28.7436C281.953 26.5101 298.146 26.0025 314.39 26.3832C348.172 27.17 380.862 33.7691 412.715 45.0381C437.36 53.7437 460.139 65.9899 482.055 79.9874C487.005 83.1473 491.84 86.5737 495.951 90.8504C495.444 93.0585 497.246 94.2768 498.071 95.9266C501.37 102.475 505.076 108.858 507.779 115.635C520.342 147.12 522.753 179.29 513.451 212.094C500.558 208.122 488.236 202.564 475.304 198.605C448.604 190.457 421.535 184.531 393.832 181.041C359.86 176.764 325.824 174.049 291.598 175.203C256.179 176.396 221.014 180.102 186.281 187.577C153.184 194.696 121.09 204.785 90.2397 218.706C79.8336 223.402 70.0493 229.264 60.4808 235.445C59.0467 236.371 57.7142 237.374 55.9122 237.386C55.9122 227.259 59.7447 217.995 63.3488 208.934C78.2092 171.536 102.27 140.178 129.846 111.472C147.08 93.5408 165.341 76.5991 183.209 59.3021C187.524 55.127 192.943 52.094 196.243 46.8274ZM302.144 45.3427C297.74 44.9874 290.583 45.8376 283.514 46.9671C265.938 49.7716 249.276 54.8224 237.029 68.9595C226.738 80.8504 227.258 96.0662 238.222 107.132C242.258 111.206 246.814 114.62 252.004 117.12C274.72 128.033 298.616 129.582 323.121 125.977C339.454 123.566 354.619 118.211 367.601 107.576C381.154 96.4596 382.284 79.2514 370.253 66.4595C366.433 62.4112 361.992 59.264 357.055 56.7513C340.672 48.4137 323.083 45.698 302.144 45.3427Z" fill="#B46E47"/>
<path d="M249.656 272.666C249.593 271.803 249.529 270.953 249.453 270.09C268.501 268.782 286.75 271.524 303.958 280.305C315.43 286.156 326.674 292.247 336.027 301.321C349.91 314.798 357.042 332.691 366.75 348.846C375.837 363.96 383.958 379.696 391.839 395.496C400.05 411.968 406.408 429.278 406.75 447.92C407.182 471.232 401.941 492.984 385.913 511.017C376.331 521.803 364.529 529.659 350.875 533.593C335.088 538.149 318.476 538.314 302.143 538.923C288.742 539.43 274.308 540.514 261.313 535.311C261.313 535.311 261.313 535.311 261.065 533.986C258.425 523.656 258.717 513.593 263.222 503.72C265.126 499.544 267.486 495.471 267.359 490.572C267.194 483.986 265.176 478.25 258.882 475.509C252.689 472.819 246.775 474.798 241.851 479.037C234.453 485.407 231.42 494.176 229.377 503.364C229.072 504.76 228.888 508.012 228.888 508.012C219.789 498.989 215.557 486.803 213.958 474.583C230.151 475.953 237.816 469.824 238.07 455.166C238.336 439.773 232.105 423.453 214.301 426.384C216.483 420.483 218.349 414.443 220.9 408.707C232.473 382.691 244.618 356.93 255.798 330.75C261.648 317.031 266.991 302.92 266.179 287.437C265.963 283.313 264.834 279.849 261.115 277.907C257.41 275.965 253.895 273.491 249.656 272.666ZM342.296 396.968C343.387 378.618 326.065 358.884 304.948 359.811C283.628 360.75 267.296 376.79 267.384 398.554C267.461 416.422 285.862 433.732 304.758 433.694C325.024 433.656 342.334 416.714 342.296 396.968ZM387.118 473.187C390.215 473.491 393.552 472.755 396.471 470.991C398.565 469.722 401.636 467.514 399.948 465.052C394.453 457.019 397.753 449.24 399.517 441.296C401.09 434.202 398.933 429.709 392.753 426.727C387.397 424.138 380.786 425.661 376.915 430.623C371.522 437.514 368.844 445.483 369.073 454.176C369.377 465.826 376.382 473.136 387.118 473.187Z" fill="#B46F48"/>
<path d="M356.243 229.442C333.324 226.397 310.291 226.143 287.283 227.221C263.387 228.338 239.783 231.727 216.979 239.404C215.38 239.937 213.793 240.546 212.271 241.27C205.862 244.303 200.329 248.351 200.481 256.232C200.646 264.696 206.128 269.493 213.476 272.501C223.121 276.447 223.21 276.435 221.674 286.574C218.882 305.026 211.56 321.803 202.613 337.97C201.687 339.646 200.659 340.864 198.133 340.445C154.415 333.313 111.319 324.214 72.5113 301.359C65.7727 297.387 59.6813 292.501 53.6534 287.501C49.5036 284.062 50.1889 281.651 53.0823 278.161C62.9554 266.27 75.0621 257.171 88.4758 249.785C127.841 228.11 170.583 216.777 214.504 209.239C252.321 202.754 290.443 200.28 328.768 201.612C371.103 203.072 412.944 208.186 453.87 219.582C454.441 219.848 455.012 220.128 455.583 220.407C455.875 220.292 456.142 220.331 456.396 220.521C456.256 225.166 451.967 224.645 449.403 225.546C434.022 230.914 418.502 235.876 403.02 240.978C400.114 239.975 397.22 238.985 394.314 237.983C393.603 236.968 397.944 234.392 393.235 234.569C391.573 234.633 389.682 234.886 388.274 234.227C378.033 229.506 367.195 229.112 356.243 229.442Z" fill="#E59C2A"/>
<path d="M403.006 240.965C418.488 235.864 434.009 230.902 449.389 225.534C451.953 224.645 456.229 225.153 456.382 220.508C493.691 231.612 529.263 245.952 557.029 274.76C563.26 281.219 563.247 281.816 556.648 287.59C536.153 305.508 511.458 315.166 486.09 323.478C463.615 330.839 440.417 335.42 417.435 340.813C413.805 341.663 411.572 340.851 409.871 337.273C402.016 320.648 395.151 303.668 390.811 285.762C388.729 277.171 389.554 275.8 397.879 272.78C409.186 268.668 413.069 263.161 412.029 253.326C411.394 247.348 406.902 244.442 403.006 240.965Z" fill="#D08B2E"/>
<path d="M261.313 535.306C274.308 540.509 288.742 539.43 302.143 538.923C318.489 538.314 335.088 538.149 350.874 533.593C364.529 529.659 376.331 521.791 385.913 511.017C401.941 492.983 407.182 471.232 406.75 447.92C406.408 429.278 400.05 411.968 391.839 395.496C383.958 379.696 375.836 363.96 366.75 348.846C357.042 332.691 349.91 314.81 336.027 301.321C326.674 292.247 315.43 286.156 303.958 280.305C286.75 271.524 268.501 268.795 249.453 270.09C246.255 259.874 246.42 259.214 256.141 257.602C283.298 253.122 310.582 252.26 338.032 254.531C345.608 255.153 353.044 256.523 360.57 257.336C364.149 257.716 365.595 259.341 364.694 262.754C358.628 285.762 365.976 306.955 373.806 327.945C382.435 351.08 395.595 372.108 405.545 394.671C416.205 418.859 424.453 443.593 422.004 470.382C419.377 499.126 405.062 520.699 379.022 533.821C360.088 543.352 339.758 546.905 318.692 548.339C303.628 549.367 288.831 548.847 274.009 546.702C267.856 545.973 262.172 540.588 261.313 535.306Z" fill="#986041"/>
<path d="M196.243 46.8276C192.956 52.0941 187.537 55.1398 183.21 59.3276C165.341 76.6373 147.08 93.5663 129.846 111.498C102.27 140.203 78.1966 171.561 63.3489 208.96C59.7448 218.021 55.9122 227.285 55.9122 237.412C49.2117 244.112 42.6127 250.914 35.7853 257.488C32.1686 260.965 31.5594 256.815 30.8995 254.887C27.2574 244.392 25.5949 233.605 26.8005 222.463C30.1381 191.612 43.5899 165.039 62.2448 140.978C96.6485 96.612 142.004 67.3353 193.781 47.221C194.517 46.9164 195.405 46.9418 196.243 46.8276Z" fill="#D3A084"/>
<path d="M513.45 212.095C522.74 179.277 520.341 147.107 507.778 115.635C505.075 108.858 501.356 102.475 498.069 95.9267C497.245 94.2769 495.443 93.0587 495.95 90.8505C505.354 95.0384 512.676 102.183 520.125 108.871C539.047 125.851 555.747 144.81 567.664 167.501C578.565 188.275 585.963 210.013 584.567 233.973C584.136 241.422 581.877 248.452 579.288 255.318C577.841 259.15 575.988 255.927 574.859 254.734C565.417 244.696 554.745 236.181 543.26 228.617C533.729 222.323 523.247 217.843 513.45 212.095Z" fill="#9A6041"/>
<path d="M213.958 474.595C215.557 486.816 219.784 498.974 228.883 507.997C228.883 507.997 228.613 518.715 228.536 524.413C228.536 524.413 228.494 529.302 226.826 530.103C224.885 530.928 223.374 528.897 221.928 527.793C208.044 517.235 198.463 503.707 193.666 486.829C186.039 459.976 190.862 434.176 199.923 408.643C208.45 384.633 221.788 362.958 232.841 340.179C243.171 318.884 250.544 296.79 249.643 272.666C253.882 273.491 257.397 275.953 261.116 277.907C264.834 279.861 265.963 283.313 266.179 287.437C266.978 302.92 261.649 317.031 255.798 330.75C244.618 356.93 232.473 382.691 220.9 408.707C218.349 414.443 216.483 420.483 214.301 426.384C211.23 428.986 209.656 432.285 209.681 436.308C205.291 445.902 205.176 455.712 208.108 465.699C208.171 469.913 211.115 472.222 213.958 474.595Z" fill="#D29F84"/>
<path d="M356.242 229.442C367.206 229.112 378.031 229.506 388.272 234.214C389.681 234.861 391.572 234.62 393.234 234.557C397.942 234.379 393.602 236.955 394.313 237.97C381.826 234.163 368.932 232.285 356.242 229.442Z" fill="#D08B2E"/>
<path d="M455.569 220.394C454.998 220.115 454.427 219.848 453.856 219.569C454.427 219.848 454.998 220.128 455.569 220.394Z" fill="#D08B2E"/>
<path d="M261.064 533.986C261.42 534.443 261.775 534.913 262.13 535.369C261.775 534.913 261.42 534.456 261.064 533.986Z" fill="#986041"/>
<path d="M302.143 45.3428C323.083 45.6854 340.671 48.4139 357.055 56.7388C361.991 59.2515 366.433 62.386 370.253 66.4469C382.283 79.2261 381.166 96.4343 367.6 107.564C354.631 118.198 339.453 123.554 323.121 125.965C298.615 129.582 274.719 128.033 252.004 117.107C246.813 114.607 242.257 111.206 238.222 107.12C227.257 96.0536 226.737 80.8378 237.029 68.9469C249.263 54.8098 265.938 49.7717 283.514 46.9544C290.582 45.8377 297.74 44.9874 302.143 45.3428Z" fill="#FCD3B5"/>
<path d="M342.296 396.968C342.334 416.714 325.024 433.643 304.757 433.694C285.861 433.732 267.46 416.435 267.384 398.554C267.295 376.79 283.641 360.75 304.948 359.811C326.065 358.897 343.387 378.618 342.296 396.968Z" fill="#4A3329"/>
<path d="M387.118 473.187C376.381 473.136 369.376 465.826 369.072 454.164C368.843 445.458 371.521 437.501 376.914 430.61C380.798 425.648 387.397 424.125 392.752 426.714C398.932 429.697 401.09 434.189 399.516 441.283C397.752 449.227 394.453 457.019 399.948 465.039C401.635 467.501 398.564 469.709 396.47 470.978C393.552 472.755 390.214 473.491 387.118 473.187Z" fill="#4A3329"/>
<path d="M213.958 474.595C211.115 472.222 208.171 469.912 208.095 465.712C209.91 465.395 211.445 464.303 211.94 462.717C214.821 453.643 215.455 444.684 209.669 436.321C209.656 432.285 211.23 428.986 214.288 426.397C232.093 423.466 238.323 439.785 238.057 455.179C237.816 469.836 230.151 475.966 213.958 474.595Z" fill="#4A342A"/>
<path d="M209.669 436.321C215.468 444.684 214.821 453.643 211.94 462.717C211.433 464.303 209.897 465.382 208.095 465.712C205.164 455.737 205.278 445.915 209.669 436.321Z" fill="#9A6041"/>
</svg>
